<svg xmlns="http://www.w3.org/2000/svg" width="17" height="10" viewBox="0 0 17 10">
  <g fill="none" fill-rule="evenodd" stroke="#000">
    <path d="M4,9.5 C6.15440637,9.5 7.5,8.28273803 7.5,6 C7.5,3.28911454 5.75174635,0.5 4,0.5 C2.24825365,0.5 0.5,3.28911454 0.5,6 C0.5,8.28273803 1.84559363,9.5 4,9.5 Z"/>
    <path d="M13,9.5 C15.1544064,9.5 16.5,8.28273803 16.5,6 C16.5,3.28911454 14.7517464,0.5 13,0.5 C11.2482536,0.5 9.5,3.28911454 9.5,6 C9.5,8.28273803 10.8455936,9.5 13,9.5 Z" transform="matrix(1 0 0 -1 0 10)"/>
  </g>
</svg>
